<?xml version="1.0" encoding="utf-8"?>
<!-- Generator: Adobe Illustrator 22.0.0, SVG Export Plug-In . SVG Version: 6.00 Build 0)  -->
<svg version="1.1" id="_x2014_ÎÓÈ_1" xmlns="http://www.w3.org/2000/svg" xmlns:xlink="http://www.w3.org/1999/xlink" x="0px"
	 y="0px" viewBox="0 0 151 139.3" style="enable-background:new 0 0 151 139.3;" xml:space="preserve">
<style type="text/css">
	.st0{fill-rule:evenodd;clip-rule:evenodd;fill:#A43823;}
</style>
<g>
	<path class="st0" d="M76,132.2H61.2c1.6-1.3,3.3-3.1,4.8-5.6c3.5-5.6,5.1-13.8,4.9-21.8c-0.1-6.2-1.4-18.9-3.9-23.5
		c-5.7-10.7-24.2-21.1-34.8-11c-2.7,2.5-4,6.4-5.4,9.7c0,0.1-0.6,1.6-0.5,1.3c1.2-4,2-8.7,4.9-12c4.4-5,11-6.3,17.6-5.3
		c-3.2-5.5-2.1-13,0.9-18.4c0.4-0.6,4.5-7.3,4.6-7.3c-1,2.7-2.1,5.3-3,8.1c-0.6,2-1.2,4.5-1.3,7.2c-0.6,11.5,4.3,10.7,11.1,15.2
		c5.1,3.5,8.3,8.1,10.7,13.5c0.5-10.9,1.4-21.7,2.7-31.8c0.4-3.1,0.9-6.3,1.6-9.4c0.7,3.1,1.2,6.3,1.6,9.4c1.4,10.2,2.2,21,2.8,31.8
		c2.4-5.4,5.5-10,10.6-13.5c6.8-4.5,11.7-3.7,11.2-15.2c-0.1-2.7-0.6-5.2-1.4-7.2c-0.9-2.7-2-5.4-3-8.1c0.1-0.1,4.2,6.7,4.6,7.3
		c3,5.3,4.2,12.8,1,18.4c6.6-1,13.2,0.2,17.6,5.3c2.9,3.2,3.7,7.9,4.8,12c0.1,0.3-0.4-1.2-0.5-1.3c-1.4-3.3-2.6-7.2-5.3-9.7
		c-10.7-10.1-29.2,0.4-34.8,11c-2.4,4.6-3.7,17.4-4,23.5c-0.1,8,1.5,16.2,4.9,21.8c1.5,2.5,3.3,4.3,4.9,5.6H76z"/>
	<path class="st0" d="M76,7.3c-2.6,2.8-8.3,9.9-5.4,16.1c1.9,4.2,4,5.8,5.4,6.5c1.5-0.6,3.5-2.3,5.5-6.5C84.3,17.2,78.7,10.1,76,7.3
		z"/>
	<path class="st0" d="M108.6,20.2c-3.2,3.3-10.2,11.9-6.8,19.4c2.3,5.1,4.8,7.1,6.6,7.9c1.7-0.7,4.2-2.7,6.6-7.8
		C118.6,32.3,111.8,23.6,108.6,20.2z"/>
	<path class="st0" d="M119.4,93.3c1.9-4.2,5.8-14.6,0.1-20.6c-3.9-4.1-6.8-5.3-8.8-5.4c-1.4,1.3-3.2,4-3.7,9.6
		C106.1,85.1,115.3,91.1,119.4,93.3z"/>
	<path class="st0" d="M147.1,69.8c-2.7-3.8-9.5-12.5-17.6-10.7c-5.5,1.2-8,3.1-9.1,4.7c0.4,1.9,1.7,4.7,6.2,8.1
		C133.1,76.9,143.1,72.2,147.1,69.8z"/>
	<path class="st0" d="M96.8,20.8c-4.5,1.1-15,4.5-16.3,12.6c-0.8,5.6,0.1,8.6,1.2,10.2c1.9,0.4,5,0,9.8-3
		C98.6,36.3,97.6,25.4,96.8,20.8z"/>
	<path class="st0" d="M94.9,44c-4.2,1.9-14,7.1-13.8,15.3c0.2,5.6,1.7,8.4,3,9.8c1.9,0,5-0.9,9.1-4.6C99.4,59,96.5,48.4,94.9,44z"/>
	<path class="st0" d="M129.5,43.9c-4.7-0.3-15.7,0-19.2,7.5c-2.4,5.1-2.3,8.3-1.7,10.1c1.7,0.9,4.8,1.5,10.2,0
		C126.7,59.3,128.9,48.5,129.5,43.9z"/>
	<path class="st0" d="M88.5,96.3c4.4-1.5,14.6-5.9,15-14.1c0.4-5.6-0.9-8.6-2.1-10c-1.9-0.2-5,0.4-9.5,3.7
		C85.3,80.9,87.3,91.8,88.5,96.3z"/>
	<path class="st0" d="M129,30.8c-2.7,0.1-8.9,0.9-10.4,5.4c-1,3-0.8,4.8-0.4,5.8c1,0.4,2.8,0.5,5.8-0.6
		C128.4,39.6,129,33.4,129,30.8z"/>
	<path class="st0" d="M143.6,49.4c-2.4-1-8.4-2.9-11.7,0.5c-2.2,2.3-2.7,4-2.8,5.1c0.8,0.8,2.4,1.7,5.5,1.9
		C139.2,57.2,142.4,51.7,143.6,49.4z"/>
	<path class="st0" d="M139.2,85.8c-0.4-2.6-1.9-8.7-6.5-9.8c-3.1-0.7-4.9-0.3-5.8,0.2c-0.3,1.1-0.2,2.9,1.2,5.8
		C130.3,86.2,136.7,86,139.2,85.8z"/>
	<path class="st0" d="M106.6,101.1c1.7-2,5.5-7.1,3.2-11.3c-1.4-2.8-2.9-3.9-4-4.2c-0.9,0.4-2.3,1.7-3.5,4.6
		C100.5,94.5,104.7,99.2,106.6,101.1z"/>
	<path class="st0" d="M127.1,100.1c1.7-2,5.4-7.1,3.2-11.3c-1.4-2.8-3-3.9-4-4.2c-1,0.4-2.3,1.7-3.5,4.6
		C121,93.4,125.2,98.2,127.1,100.1z"/>
	<path class="st0" d="M122.5,16c-2.2,1.4-7.2,5.3-6.3,9.9c0.6,3.1,1.8,4.5,2.7,5.2c1.1-0.1,2.7-0.9,4.7-3.5
		C126.6,24,123.8,18.3,122.5,16z"/>
	<path class="st0" d="M43.5,20.2c3.2,3.3,10.2,11.9,6.8,19.4c-2.4,5.1-4.8,7.1-6.6,7.9c-1.8-0.7-4.2-2.7-6.7-7.8
		C33.5,32.3,40.3,23.6,43.5,20.2z"/>
	<path class="st0" d="M32.6,93.3c-1.9-4.2-5.7-14.6,0-20.6c3.9-4.1,6.8-5.3,8.8-5.4c1.4,1.3,3.1,4,3.7,9.6
		C46,85.1,36.7,91.1,32.6,93.3z"/>
	<path class="st0" d="M5,69.8c2.6-3.8,9.5-12.5,17.6-10.7c5.5,1.2,8,3.1,9.1,4.7c-0.4,1.9-1.7,4.7-6.2,8.1C19,76.9,9.1,72.2,5,69.8z
		"/>
	<path class="st0" d="M55.2,20.8c4.5,1.1,15,4.5,16.3,12.6c0.9,5.6-0.1,8.6-1.2,10.2c-1.9,0.4-5,0-9.9-3
		C53.5,36.3,54.5,25.4,55.2,20.8z"/>
	<path class="st0" d="M57.2,44c4.2,1.9,14,7.1,13.7,15.3c-0.1,5.6-1.7,8.4-3,9.8c-1.9,0-5-0.9-9.1-4.6C52.6,59,55.7,48.4,57.2,44z"
		/>
	<path class="st0" d="M22.7,43.9c4.7-0.3,15.7,0,19.2,7.5c2.4,5.1,2.4,8.3,1.8,10.1c-1.7,0.9-4.8,1.5-10.3,0
		C25.4,59.3,23.3,48.5,22.7,43.9z"/>
	<path class="st0" d="M63.6,96.3c-4.5-1.5-14.6-5.9-15-14.1c-0.4-5.6,0.9-8.6,2.1-10c1.9-0.2,5,0.4,9.5,3.7
		C66.8,80.9,64.8,91.8,63.6,96.3z"/>
	<path class="st0" d="M23.1,30.8c2.6,0.1,8.9,0.9,10.4,5.4c1.1,3,0.9,4.8,0.4,5.8c-1.1,0.4-2.9,0.5-5.8-0.6
		C23.7,39.6,23.1,33.4,23.1,30.8z"/>
	<path class="st0" d="M8.5,49.4c2.5-1,8.5-2.9,11.7,0.5c2.2,2.3,2.8,4,2.8,5.1c-0.7,0.8-2.3,1.7-5.5,1.9
		C12.8,57.2,9.6,51.7,8.5,49.4z"/>
	<path class="st0" d="M12.8,85.8c0.4-2.6,1.9-8.7,6.5-9.8c3.2-0.7,4.9-0.3,5.9,0.2c0.2,1.1,0.2,2.9-1.3,5.8
		C21.7,86.2,15.5,86,12.8,85.8z"/>
	<path class="st0" d="M45.5,101.1c-1.7-2-5.4-7.1-3.2-11.3c1.5-2.8,3-3.9,4-4.2c1,0.4,2.4,1.7,3.6,4.6
		C51.5,94.5,47.4,99.2,45.5,101.1z"/>
	<path class="st0" d="M25,100.1c-1.7-2-5.4-7.1-3.2-11.3c1.5-2.8,3-3.9,4-4.2c0.9,0.4,2.3,1.7,3.5,4.6C31.1,93.4,26.9,98.2,25,100.1
		z"/>
	<path class="st0" d="M29.6,16c2.2,1.4,7.1,5.3,6.2,9.9c-0.6,3.1-1.7,4.5-2.6,5.2c-1.1-0.1-2.7-0.9-4.7-3.5
		C25.6,24,28.2,18.3,29.6,16z"/>
	<path class="st0" d="M94.5,9.5c-2.6,0.4-8.7,2.1-9.6,6.7c-0.6,3.2-0.1,4.9,0.4,5.8c1.1,0.2,2.9,0.1,5.7-1.4
		C95.1,18.5,94.8,12.1,94.5,9.5z"/>
	<path class="st0" d="M57.6,9.5c2.6,0.4,8.6,2.1,9.6,6.7c0.6,3.2,0.2,4.9-0.4,5.8c-1.1,0.2-2.9,0.1-5.7-1.4
		C57,18.5,57.2,12.1,57.6,9.5z"/>
</g>
</svg>
